<?xml version="1.0" encoding="UTF-8"?>
<svg id="Calque_2" data-name="Calque 2" xmlns="http://www.w3.org/2000/svg" viewBox="0 0 425.36 153.59">
  <defs>
    <style>
      .cls-1 {
        stroke-width: 0px;
      }
    </style>
  </defs>
  <g id="Calque_1-2" data-name="Calque 1">
    <g>
      <path class="cls-1" d="m109.41,47.65c-4.91-17.38-18.61-28.22-40.29-28.22-25.77,0-45.2,19.43-45.2,57.06s18.2,57.67,44.99,57.67c18.82,0,41.93-7.98,41.93-36.61v-3.27h-38.65v-19.84h60.33v76.49h-18.2l-1.02-18.2c-9.2,14.11-25.97,20.86-46.02,20.86C24.74,153.59,0,122.09,0,76.49S27.2,0,69.94,0c31.9,0,55.83,17.59,61.97,47.65h-22.5Z"/>
      <path class="cls-1" d="m154.39,65.14h128.61v23.31h-128.61v-23.31Z"/>
      <path class="cls-1" d="m327.4,28.22v122.71h-22.9V2.66h32.52l65.44,122.5V2.66h22.91v148.27h-32.52l-65.44-122.71Z"/>
    </g>
  </g>
</svg>